<mxfile host="app.diagrams.net" modified="2024-06-07T20:50:47.299Z" agent="Mozilla/5.0 (Windows NT 10.0; Win64; x64) AppleWebKit/537.36 (KHTML, like Gecko) Chrome/125.0.0.0 Safari/537.36" etag="NK6Jpd25tiKiacgA2HtA" version="22.0.0" type="device">
  <diagram id="C5RBs43oDa-KdzZeNtuy" name="Page-1">
    <mxGraphModel dx="1434" dy="780" grid="1" gridSize="10" guides="1" tooltips="1" connect="1" arrows="1" fold="1" page="1" pageScale="1" pageWidth="827" pageHeight="1169" math="0" shadow="0">
      <root>
        <mxCell id="WIyWlLk6GJQsqaUBKTNV-0" />
        <mxCell id="WIyWlLk6GJQsqaUBKTNV-1" parent="WIyWlLk6GJQsqaUBKTNV-0" />
        <mxCell id="4ropt1eYr66qldLgSK8g-2" style="edgeStyle=orthogonalEdgeStyle;rounded=0;orthogonalLoop=1;jettySize=auto;html=1;exitX=0.5;exitY=1;exitDx=0;exitDy=0;" edge="1" parent="WIyWlLk6GJQsqaUBKTNV-1" source="4ropt1eYr66qldLgSK8g-0">
          <mxGeometry relative="1" as="geometry">
            <mxPoint x="390" y="160" as="targetPoint" />
          </mxGeometry>
        </mxCell>
        <mxCell id="4ropt1eYr66qldLgSK8g-0" value="&lt;font face=&quot;Verdana&quot;&gt;начало&lt;/font&gt;" style="ellipse;whiteSpace=wrap;html=1;fillColor=#f8cecc;strokeColor=#b85450;" vertex="1" parent="WIyWlLk6GJQsqaUBKTNV-1">
          <mxGeometry x="330" y="40" width="120" height="80" as="geometry" />
        </mxCell>
        <mxCell id="4ropt1eYr66qldLgSK8g-5" style="edgeStyle=orthogonalEdgeStyle;rounded=0;orthogonalLoop=1;jettySize=auto;html=1;exitX=0.5;exitY=1;exitDx=0;exitDy=0;entryX=0.5;entryY=0;entryDx=0;entryDy=0;" edge="1" parent="WIyWlLk6GJQsqaUBKTNV-1" source="4ropt1eYr66qldLgSK8g-3" target="4ropt1eYr66qldLgSK8g-4">
          <mxGeometry relative="1" as="geometry" />
        </mxCell>
        <mxCell id="4ropt1eYr66qldLgSK8g-3" value="&lt;font face=&quot;Verdana&quot;&gt;string[ ] array = new string[ ] { “Hello”, “2”, “world”, “:-)”] → [“2”, “:-)” }&amp;nbsp;&lt;br&gt;&lt;br&gt;int LenNewArray = 0;&lt;br&gt;&amp;nbsp;&lt;/font&gt;" style="shape=parallelogram;perimeter=parallelogramPerimeter;whiteSpace=wrap;html=1;fixedSize=1;spacingTop=0;spacingLeft=13;" vertex="1" parent="WIyWlLk6GJQsqaUBKTNV-1">
          <mxGeometry x="200" y="160" width="370" height="100" as="geometry" />
        </mxCell>
        <mxCell id="4ropt1eYr66qldLgSK8g-8" style="edgeStyle=orthogonalEdgeStyle;rounded=0;orthogonalLoop=1;jettySize=auto;html=1;exitX=0.5;exitY=1;exitDx=0;exitDy=0;entryX=0.5;entryY=0;entryDx=0;entryDy=0;" edge="1" parent="WIyWlLk6GJQsqaUBKTNV-1" source="4ropt1eYr66qldLgSK8g-4" target="4ropt1eYr66qldLgSK8g-6">
          <mxGeometry relative="1" as="geometry" />
        </mxCell>
        <mxCell id="4ropt1eYr66qldLgSK8g-4" value="i = 0;&lt;br&gt;array.Length - 1;&amp;nbsp;&lt;br&gt;i++" style="rounded=0;whiteSpace=wrap;html=1;fontFamily=Verdana;" vertex="1" parent="WIyWlLk6GJQsqaUBKTNV-1">
          <mxGeometry x="287" y="290" width="200" height="80" as="geometry" />
        </mxCell>
        <mxCell id="4ropt1eYr66qldLgSK8g-10" style="edgeStyle=orthogonalEdgeStyle;rounded=0;orthogonalLoop=1;jettySize=auto;html=1;exitX=0;exitY=0.5;exitDx=0;exitDy=0;entryX=0;entryY=0.5;entryDx=0;entryDy=0;" edge="1" parent="WIyWlLk6GJQsqaUBKTNV-1" source="4ropt1eYr66qldLgSK8g-6" target="4ropt1eYr66qldLgSK8g-4">
          <mxGeometry relative="1" as="geometry">
            <Array as="points">
              <mxPoint x="160" y="470" />
              <mxPoint x="160" y="330" />
            </Array>
          </mxGeometry>
        </mxCell>
        <mxCell id="4ropt1eYr66qldLgSK8g-12" style="edgeStyle=orthogonalEdgeStyle;rounded=0;orthogonalLoop=1;jettySize=auto;html=1;exitX=0.5;exitY=1;exitDx=0;exitDy=0;" edge="1" parent="WIyWlLk6GJQsqaUBKTNV-1" source="4ropt1eYr66qldLgSK8g-6">
          <mxGeometry relative="1" as="geometry">
            <mxPoint x="387" y="560" as="targetPoint" />
          </mxGeometry>
        </mxCell>
        <mxCell id="4ropt1eYr66qldLgSK8g-6" value="array[i].Length&amp;lt;- 3" style="rhombus;whiteSpace=wrap;html=1;" vertex="1" parent="WIyWlLk6GJQsqaUBKTNV-1">
          <mxGeometry x="322" y="410" width="130" height="120" as="geometry" />
        </mxCell>
        <mxCell id="4ropt1eYr66qldLgSK8g-11" value="нет" style="text;html=1;align=center;verticalAlign=middle;resizable=0;points=[];autosize=1;strokeColor=none;fillColor=none;" vertex="1" parent="WIyWlLk6GJQsqaUBKTNV-1">
          <mxGeometry x="230" y="438" width="40" height="30" as="geometry" />
        </mxCell>
        <mxCell id="4ropt1eYr66qldLgSK8g-15" style="edgeStyle=orthogonalEdgeStyle;rounded=0;orthogonalLoop=1;jettySize=auto;html=1;exitX=0;exitY=0.5;exitDx=0;exitDy=0;" edge="1" parent="WIyWlLk6GJQsqaUBKTNV-1" source="4ropt1eYr66qldLgSK8g-13">
          <mxGeometry relative="1" as="geometry">
            <mxPoint x="160" y="470" as="targetPoint" />
          </mxGeometry>
        </mxCell>
        <mxCell id="4ropt1eYr66qldLgSK8g-13" value="LenNewArray++" style="rounded=0;whiteSpace=wrap;html=1;" vertex="1" parent="WIyWlLk6GJQsqaUBKTNV-1">
          <mxGeometry x="310" y="560" width="160" height="40" as="geometry" />
        </mxCell>
        <mxCell id="4ropt1eYr66qldLgSK8g-14" value="Да" style="text;html=1;align=center;verticalAlign=middle;resizable=0;points=[];autosize=1;strokeColor=none;fillColor=none;" vertex="1" parent="WIyWlLk6GJQsqaUBKTNV-1">
          <mxGeometry x="380" y="528" width="40" height="30" as="geometry" />
        </mxCell>
        <mxCell id="4ropt1eYr66qldLgSK8g-16" value="&lt;font face=&quot;Verdana&quot;&gt;string[ ] NewArray = new string[&amp;nbsp;&lt;/font&gt;LenNewArray&lt;font face=&quot;Verdana&quot;&gt;];&lt;br&gt;&lt;br&gt;int idx= 0;&lt;br&gt;&amp;nbsp;&lt;/font&gt;" style="shape=parallelogram;perimeter=parallelogramPerimeter;whiteSpace=wrap;html=1;fixedSize=1;spacingTop=0;spacingLeft=13;" vertex="1" parent="WIyWlLk6GJQsqaUBKTNV-1">
          <mxGeometry x="190" y="640" width="370" height="100" as="geometry" />
        </mxCell>
        <mxCell id="4ropt1eYr66qldLgSK8g-22" style="edgeStyle=orthogonalEdgeStyle;rounded=0;orthogonalLoop=1;jettySize=auto;html=1;exitX=0.5;exitY=1;exitDx=0;exitDy=0;entryX=0.5;entryY=0;entryDx=0;entryDy=0;" edge="1" parent="WIyWlLk6GJQsqaUBKTNV-1" source="4ropt1eYr66qldLgSK8g-17" target="4ropt1eYr66qldLgSK8g-18">
          <mxGeometry relative="1" as="geometry" />
        </mxCell>
        <mxCell id="4ropt1eYr66qldLgSK8g-32" style="edgeStyle=orthogonalEdgeStyle;rounded=0;orthogonalLoop=1;jettySize=auto;html=1;exitX=1;exitY=0.5;exitDx=0;exitDy=0;entryX=1;entryY=0.5;entryDx=0;entryDy=0;" edge="1" parent="WIyWlLk6GJQsqaUBKTNV-1" source="4ropt1eYr66qldLgSK8g-17" target="4ropt1eYr66qldLgSK8g-30">
          <mxGeometry relative="1" as="geometry">
            <Array as="points">
              <mxPoint x="600" y="810" />
              <mxPoint x="600" y="1180" />
            </Array>
          </mxGeometry>
        </mxCell>
        <mxCell id="4ropt1eYr66qldLgSK8g-17" value="i = 0;&lt;br&gt;array.Length - 1;&amp;nbsp;&lt;br&gt;i++" style="rounded=0;whiteSpace=wrap;html=1;fontFamily=Verdana;" vertex="1" parent="WIyWlLk6GJQsqaUBKTNV-1">
          <mxGeometry x="285" y="770" width="200" height="80" as="geometry" />
        </mxCell>
        <mxCell id="4ropt1eYr66qldLgSK8g-23" style="edgeStyle=orthogonalEdgeStyle;rounded=0;orthogonalLoop=1;jettySize=auto;html=1;exitX=0;exitY=0.5;exitDx=0;exitDy=0;entryX=0;entryY=0.5;entryDx=0;entryDy=0;" edge="1" parent="WIyWlLk6GJQsqaUBKTNV-1" source="4ropt1eYr66qldLgSK8g-18" target="4ropt1eYr66qldLgSK8g-17">
          <mxGeometry relative="1" as="geometry">
            <Array as="points">
              <mxPoint x="200" y="940" />
              <mxPoint x="200" y="810" />
            </Array>
          </mxGeometry>
        </mxCell>
        <mxCell id="4ropt1eYr66qldLgSK8g-27" style="edgeStyle=orthogonalEdgeStyle;rounded=0;orthogonalLoop=1;jettySize=auto;html=1;exitX=0.5;exitY=1;exitDx=0;exitDy=0;" edge="1" parent="WIyWlLk6GJQsqaUBKTNV-1" source="4ropt1eYr66qldLgSK8g-18">
          <mxGeometry relative="1" as="geometry">
            <mxPoint x="387" y="1030" as="targetPoint" />
          </mxGeometry>
        </mxCell>
        <mxCell id="4ropt1eYr66qldLgSK8g-18" value="array[i].Length&amp;lt;- 3" style="rhombus;whiteSpace=wrap;html=1;" vertex="1" parent="WIyWlLk6GJQsqaUBKTNV-1">
          <mxGeometry x="322" y="880" width="130" height="120" as="geometry" />
        </mxCell>
        <mxCell id="4ropt1eYr66qldLgSK8g-19" style="edgeStyle=orthogonalEdgeStyle;rounded=0;orthogonalLoop=1;jettySize=auto;html=1;exitX=0.5;exitY=1;exitDx=0;exitDy=0;entryX=0.541;entryY=0.02;entryDx=0;entryDy=0;entryPerimeter=0;" edge="1" parent="WIyWlLk6GJQsqaUBKTNV-1" source="4ropt1eYr66qldLgSK8g-13" target="4ropt1eYr66qldLgSK8g-16">
          <mxGeometry relative="1" as="geometry" />
        </mxCell>
        <mxCell id="4ropt1eYr66qldLgSK8g-21" style="edgeStyle=orthogonalEdgeStyle;rounded=0;orthogonalLoop=1;jettySize=auto;html=1;exitX=0.5;exitY=1;exitDx=0;exitDy=0;entryX=0.54;entryY=0.013;entryDx=0;entryDy=0;entryPerimeter=0;" edge="1" parent="WIyWlLk6GJQsqaUBKTNV-1" source="4ropt1eYr66qldLgSK8g-16" target="4ropt1eYr66qldLgSK8g-17">
          <mxGeometry relative="1" as="geometry" />
        </mxCell>
        <mxCell id="4ropt1eYr66qldLgSK8g-24" value="нет" style="text;html=1;align=center;verticalAlign=middle;resizable=0;points=[];autosize=1;strokeColor=none;fillColor=none;" vertex="1" parent="WIyWlLk6GJQsqaUBKTNV-1">
          <mxGeometry x="250" y="918" width="40" height="30" as="geometry" />
        </mxCell>
        <mxCell id="4ropt1eYr66qldLgSK8g-29" style="edgeStyle=orthogonalEdgeStyle;rounded=0;orthogonalLoop=1;jettySize=auto;html=1;exitX=0;exitY=0.5;exitDx=0;exitDy=0;" edge="1" parent="WIyWlLk6GJQsqaUBKTNV-1" source="4ropt1eYr66qldLgSK8g-25">
          <mxGeometry relative="1" as="geometry">
            <mxPoint x="200" y="940" as="targetPoint" />
          </mxGeometry>
        </mxCell>
        <mxCell id="4ropt1eYr66qldLgSK8g-25" value="NewArray[idx] = array[i];&lt;br&gt;idx++" style="rounded=0;whiteSpace=wrap;html=1;" vertex="1" parent="WIyWlLk6GJQsqaUBKTNV-1">
          <mxGeometry x="307.5" y="1030" width="155" height="60" as="geometry" />
        </mxCell>
        <mxCell id="4ropt1eYr66qldLgSK8g-34" value="" style="edgeStyle=orthogonalEdgeStyle;rounded=0;orthogonalLoop=1;jettySize=auto;html=1;entryX=0.517;entryY=0;entryDx=0;entryDy=0;entryPerimeter=0;" edge="1" parent="WIyWlLk6GJQsqaUBKTNV-1" source="4ropt1eYr66qldLgSK8g-30" target="4ropt1eYr66qldLgSK8g-33">
          <mxGeometry relative="1" as="geometry" />
        </mxCell>
        <mxCell id="4ropt1eYr66qldLgSK8g-30" value="PrintArray (array)&lt;br&gt;Console.WriteLine(&quot; -&amp;gt;&quot;)&lt;br&gt;PrintArray(newArray)" style="shape=document;whiteSpace=wrap;html=1;boundedLbl=1;" vertex="1" parent="WIyWlLk6GJQsqaUBKTNV-1">
          <mxGeometry x="302" y="1130" width="170" height="100" as="geometry" />
        </mxCell>
        <mxCell id="4ropt1eYr66qldLgSK8g-33" value="конец" style="ellipse;whiteSpace=wrap;html=1;fillColor=#f8cecc;strokeColor=#b85450;" vertex="1" parent="WIyWlLk6GJQsqaUBKTNV-1">
          <mxGeometry x="325" y="1270" width="120" height="80" as="geometry" />
        </mxCell>
      </root>
    </mxGraphModel>
  </diagram>
</mxfile>
